<svg id="Layer_1" data-name="Layer 1" xmlns="http://www.w3.org/2000/svg" xmlns:xlink="http://www.w3.org/1999/xlink" viewBox="0 0 1500 1500"><defs><style>.cls-1{fill:url(#linear-gradient);}.cls-2{fill:url(#linear-gradient-2);}.cls-3{fill:url(#linear-gradient-3);}.cls-4{fill:url(#linear-gradient-4);}.cls-5{fill:url(#linear-gradient-5);}.cls-6{fill:url(#linear-gradient-6);}.cls-7{fill:#00c;}</style><linearGradient id="linear-gradient" x1="318.79" y1="877.33" x2="318.79" y2="631.96" gradientUnits="userSpaceOnUse"><stop offset="0" stop-color="#00c"/><stop offset="1" stop-color="#21ffd3"/></linearGradient><linearGradient id="linear-gradient-2" x1="403.56" y1="877.33" x2="403.56" y2="631.96" xlink:href="#linear-gradient"/><linearGradient id="linear-gradient-3" x1="376.67" y1="877.33" x2="376.67" y2="631.96" xlink:href="#linear-gradient"/><linearGradient id="linear-gradient-4" x1="368.95" y1="877.33" x2="368.95" y2="631.96" xlink:href="#linear-gradient"/><linearGradient id="linear-gradient-5" x1="360.16" y1="877.33" x2="360.16" y2="631.96" xlink:href="#linear-gradient"/><linearGradient id="linear-gradient-6" x1="334.16" y1="877.33" x2="334.16" y2="631.96" xlink:href="#linear-gradient"/></defs><polygon class="cls-1" points="361.19 603.15 248.14 798.96 304.66 798.95 389.44 652.1 361.19 603.15"/><polygon class="cls-2" points="417.7 701.05 332.91 847.9 361.17 896.85 474.22 701.04 417.7 701.05"/><polygon class="cls-3" points="395.67 729.67 398.07 725.53 398.07 725.53 355.28 725.53 387.36 744.05 395.67 729.67"/><polygon class="cls-4" points="384.99 748.17 352.92 729.66 374.29 766.7 384.99 748.17"/><polygon class="cls-5" points="348.78 774.48 369.81 774.47 371.54 771.47 348.78 732.04 348.78 774.48"/><polygon class="cls-6" points="344.02 740.28 324.29 774.48 344.02 774.48 344.02 740.28"/><rect x="498.69" y="701.04" width="16.05" height="97.91"/><rect x="519.53" y="741.92" width="58.56" height="16.04"/><rect x="582.9" y="701.04" width="16.04" height="97.91"/><path d="M691,725.75a17.26,17.26,0,0,0-12.65-5.27H616.62v15.93h61.72a2,2,0,0,1,2.11,2.11v13.23H616.62v29.17a18,18,0,0,0,18,18h41V783h-41a2,2,0,0,1-2.11-2.1V767.68h47.9V799h15.93V738.52A17.18,17.18,0,0,0,691,725.75Z"/><path d="M727.78,799A17.26,17.26,0,0,1,715,793.66a17.45,17.45,0,0,1-5.29-12.75V738.54a18.06,18.06,0,0,1,18-18h61.39v15.86H727.78a2,2,0,0,0-2.16,2.17v42.37a2,2,0,0,0,2.16,2.17h61.66V799Z"/><path d="M874.51,720.48l-20.38-.35-28.81,30.69v17.33L853.2,799h21.31l-35.6-39.23Zm-69.8-19.55v98h15.81v-98Z"/><polygon points="1038.24 701.04 1002.63 798.95 989.75 798.95 962.93 725.4 936 798.95 923.35 798.95 887.63 701.04 904.61 701.04 929.67 769.44 953.1 705.73 972.89 705.73 996.19 769.44 1021.26 701.04 1038.24 701.04"/><path d="M1121.16,725.75a17.35,17.35,0,0,0-12.77-5.27h-61.6v15.93h61.6a2.06,2.06,0,0,1,2.23,2.11v13.23h-63.83v29.17a17.51,17.51,0,0,0,5.27,12.76,17.33,17.33,0,0,0,12.76,5.27h41V783h-41a2,2,0,0,1-2.22-2.1V767.68h48V799h15.81V738.52A17.53,17.53,0,0,0,1121.16,725.75Z"/><rect x="1164.25" y="720.48" width="22.02" height="15.93"/><path d="M1191,783V799h-29.28a17.41,17.41,0,0,1-12.88-5.27,17.85,17.85,0,0,1-5.16-12.76V701h15.81v79.88a2,2,0,0,0,2.23,2.1Z"/><rect x="1225.15" y="720.48" width="22.02" height="15.93"/><path d="M1251.86,783V799h-29.28a17.41,17.41,0,0,1-12.88-5.27,17.85,17.85,0,0,1-5.16-12.76V701h15.81v79.88a2.06,2.06,0,0,0,2.23,2.1Z"/><path class="cls-7" d="M498.69,837.15V823.23h4.58V837c0,5.08,2.29,7.26,6.27,7.26s6.24-2.18,6.24-7.26V823.23h4.51v13.92c0,7.19-4,11.1-10.78,11.1S498.69,844.34,498.69,837.15Z"/><path class="cls-7" d="M551.45,823.23V847.9h-3.78l-13.6-16.71V847.9h-4.55V823.23h3.77l13.61,16.7v-16.7Z"/><path class="cls-7" d="M560.89,823.23h4.58V844h12.9v3.88H560.89Z"/><path class="cls-7" d="M603.32,844.06v3.84h-18.5V823.23h18v3.84H589.4v6.41h11.91v3.77H589.4v6.81Z"/><path class="cls-7" d="M627.25,842.19H614.91l-2.43,5.71h-4.72l11.1-24.67h4.51l11.14,24.67h-4.79Zm-1.52-3.6-4.65-10.78-4.62,10.78Z"/><path class="cls-7" d="M638.38,845.29l1.59-3.56a13.64,13.64,0,0,0,8.14,2.72c3.84,0,5.46-1.38,5.46-3.21,0-5.32-14.66-1.83-14.66-11,0-4,3.17-7.37,9.94-7.37a15.59,15.59,0,0,1,8.21,2.19l-1.44,3.56a13.78,13.78,0,0,0-6.81-1.94c-3.8,0-5.35,1.48-5.35,3.35,0,5.25,14.62,1.83,14.62,10.89,0,4-3.2,7.33-10,7.33C644.27,848.25,640.43,847.05,638.38,845.29Z"/><path class="cls-7" d="M687.37,823.23V847.9h-4.58V837.33H670V847.9h-4.58V823.23H670v10.18h12.76V823.23Z"/><path class="cls-7" d="M696.81,823.23h4.58V847.9h-4.58Z"/><path class="cls-7" d="M732.8,823.23V847.9H729l-13.6-16.71V847.9h-4.55V823.23h3.77l13.61,16.7v-16.7Z"/><path class="cls-7" d="M759.08,835.28h4.34v9.83a15.62,15.62,0,0,1-9.66,3.14c-7.65,0-13.29-5.32-13.29-12.69s5.64-12.69,13.36-12.69c4.13,0,7.58,1.38,9.91,4l-2.89,2.82a9.16,9.16,0,0,0-6.81-2.82c-5.25,0-8.95,3.56-8.95,8.67s3.7,8.67,8.92,8.67a9.9,9.9,0,0,0,5.07-1.27Z"/><path class="cls-7" d="M789.81,827.1h-8.18v-3.87h20.94v3.87h-8.18v20.8h-4.58Z"/><path class="cls-7" d="M830.76,823.23V847.9h-4.58V837.33H813.42V847.9h-4.58V823.23h4.58v10.18h12.76V823.23Z"/><path class="cls-7" d="M858.71,844.06v3.84h-18.5V823.23h18v3.84H844.79v6.41H856.7v3.77H844.79v6.81Z"/><path class="cls-7" d="M899.84,832c0,5.43-4,8.78-10.51,8.78h-5.57v7.12h-4.58V823.23h10.15C895.82,823.23,899.84,826.54,899.84,832Zm-4.62,0c0-3.1-2.08-4.9-6.1-4.9h-5.36v9.8h5.36C893.14,836.9,895.22,835.1,895.22,832Z"/><path class="cls-7" d="M905.82,835.56c0-7.29,5.64-12.69,13.29-12.69s13.29,5.36,13.29,12.69-5.64,12.69-13.29,12.69S905.82,842.86,905.82,835.56Zm22,0a8.67,8.67,0,1,0-8.67,8.67A8.41,8.41,0,0,0,927.78,835.56Z"/><path class="cls-7" d="M975.36,823.23l-8.18,24.67h-4.86l-6.1-18.26L950,847.9h-4.9l-8.18-24.67h4.76L947.83,842l6.38-18.75h4.23l6.24,18.85L971,823.23Z"/><path class="cls-7" d="M1000.41,844.06v3.84h-18.5V823.23h18v3.84H986.49v6.41H998.4v3.77H986.49v6.81Z"/><path class="cls-7" d="M1024.48,847.9l-5-7.23a7.47,7.47,0,0,1-1,0h-5.57v7.19h-4.58V823.23h10.15c6.49,0,10.5,3.31,10.5,8.77a7.88,7.88,0,0,1-5.25,7.79l5.68,8.11Zm-6.2-20.8h-5.36v9.84h5.36c4,0,6.1-1.84,6.1-4.94S1022.3,827.1,1018.28,827.1Z"/><path class="cls-7" d="M1047.7,835.56c0-7.29,5.64-12.69,13.29-12.69s13.29,5.36,13.29,12.69-5.64,12.69-13.29,12.69S1047.7,842.86,1047.7,835.56Zm22,0a8.67,8.67,0,1,0-8.67,8.67A8.41,8.41,0,0,0,1069.66,835.56Z"/><path class="cls-7" d="M1086.54,827.07v7.51h11.91v3.87h-11.91v9.45H1082V823.23h18v3.84Z"/><path class="cls-7" d="M1117.69,845.29l1.59-3.56a13.64,13.64,0,0,0,8.14,2.72c3.84,0,5.46-1.38,5.46-3.21,0-5.32-14.66-1.83-14.66-11,0-4,3.17-7.37,9.94-7.37a15.59,15.59,0,0,1,8.21,2.19l-1.44,3.56a13.78,13.78,0,0,0-6.81-1.94c-3.8,0-5.35,1.48-5.35,3.35,0,5.25,14.62,1.83,14.62,10.89,0,4-3.2,7.33-10,7.33C1123.58,848.25,1119.74,847.05,1117.69,845.29Z"/><path class="cls-7" d="M1167.42,847.9l0-16.35-8.11,13.53h-2l-8.1-13.32V847.9h-4.37V823.23h3.77l9.8,16.35,9.62-16.35h3.77l0,24.67Z"/><path class="cls-7" d="M1197.23,842.19H1184.9l-2.44,5.71h-4.72l11.1-24.67h4.52l11.13,24.67h-4.79Zm-1.51-3.6-4.66-10.78-4.61,10.78Z"/><path class="cls-7" d="M1210.45,823.23H1215V844h12.9v3.88h-17.48Z"/><path class="cls-7" d="M1234.37,823.23H1239V844h12.9v3.88h-17.49Z"/></svg>