<svg id="Layer_1" data-name="Layer 1" xmlns="http://www.w3.org/2000/svg" xmlns:xlink="http://www.w3.org/1999/xlink" viewBox="0 0 1500 1500"><defs><style>.cls-1{fill:url(#linear-gradient);}.cls-2{fill:#fff;}</style><linearGradient id="linear-gradient" x1="750" y1="2100.38" x2="750" y2="220.71" gradientUnits="userSpaceOnUse"><stop offset="0" stop-color="#00c"/><stop offset="1" stop-color="#21ffd3"/></linearGradient></defs><rect class="cls-1" width="1500" height="1500"/><polygon class="cls-2" points="750.03 366.71 454.96 877.78 602.48 877.77 823.78 494.47 750.03 366.71"/><polygon class="cls-2" points="897.52 622.23 676.23 1005.53 749.97 1133.29 1045.04 622.22 897.52 622.23"/><polygon class="cls-2" points="840.02 696.93 846.28 686.14 846.29 686.12 734.59 686.12 818.35 734.48 840.02 696.93"/><polygon class="cls-2" points="812.14 745.22 728.43 696.91 784.23 793.58 812.14 745.22"/><polygon class="cls-2" points="717.65 813.88 772.51 813.88 777.05 806.03 717.65 703.12 717.65 813.88"/><polygon class="cls-2" points="705.22 724.64 653.71 813.89 705.22 813.88 705.22 724.64"/></svg>