<svg id="Layer_1" data-name="Layer 1" xmlns="http://www.w3.org/2000/svg" viewBox="0 0 1500 1500"><defs><style>.cls-1{fill:#00c;}</style></defs><rect x="347.43" y="671.38" width="17.15" height="104.66"/><rect x="369.71" y="715.07" width="62.6" height="17.15"/><rect x="437.45" y="671.38" width="17.15" height="104.66"/><path d="M553,697.8a18.42,18.42,0,0,0-13.52-5.64h-66v17h66a2.1,2.1,0,0,1,2.25,2.25v14.15H473.5v31.17A19.24,19.24,0,0,0,492.78,776H536.6V759H492.78a2.11,2.11,0,0,1-2.25-2.26V742.62h51.2V776h17v-64.6A18.35,18.35,0,0,0,553,697.8Z"/><path d="M592.33,776a18.45,18.45,0,0,1-13.63-5.65A18.69,18.69,0,0,1,573,756.76v-45.3a19.31,19.31,0,0,1,19.29-19.27H658v16.95H592.33a2.17,2.17,0,0,0-2.31,2.32v45.3a2.16,2.16,0,0,0,2.31,2.32h65.91v17Z"/><path d="M749.19,692.16l-21.79-.37-30.8,32.8v18.53L726.4,776h22.79L711.13,734.1Zm-74.62-20.91V776h16.9V671.25Z"/><polygon points="924.21 671.38 886.15 776.04 872.38 776.04 843.71 697.42 814.91 776.04 801.4 776.04 763.21 671.38 781.36 671.38 808.15 744.49 833.19 676.39 854.35 676.39 879.26 744.49 906.06 671.38 924.21 671.38"/><path d="M1012.85,697.8a18.49,18.49,0,0,0-13.64-5.64H933.35v17h65.86a2.2,2.2,0,0,1,2.37,2.25v14.15H933.35v31.17A18.75,18.75,0,0,0,939,770.41,18.52,18.52,0,0,0,952.63,776h43.82V759H952.63a2.15,2.15,0,0,1-2.38-2.26V742.62h51.33V776h16.91v-64.6A18.7,18.7,0,0,0,1012.85,697.8Z"/><rect x="1058.92" y="692.16" width="23.54" height="17.03"/><path d="M1087.47,759v17h-31.3a18.57,18.57,0,0,1-13.77-5.63,19.13,19.13,0,0,1-5.51-13.65V671.38h16.9v85.38a2.15,2.15,0,0,0,2.38,2.26Z"/><rect x="1124.03" y="692.16" width="23.54" height="17.03"/><path d="M1152.57,759v17h-31.3a18.58,18.58,0,0,1-13.77-5.63,19.13,19.13,0,0,1-5.51-13.65V671.38h16.9v85.38a2.21,2.21,0,0,0,2.38,2.26Z"/><path class="cls-1" d="M347.43,816.88V802h4.9v14.7c0,5.42,2.45,7.76,6.7,7.76s6.67-2.34,6.67-7.76V802h4.83v14.89c0,7.68-4.34,11.87-11.53,11.87S347.43,824.56,347.43,816.88Z"/><path class="cls-1" d="M403.83,802v26.38h-4l-14.55-17.86v17.86h-4.86V802h4L399,819.85V802Z"/><path class="cls-1" d="M413.92,802h4.9v22.23h13.79v4.15H413.92Z"/><path class="cls-1" d="M459.28,824.26v4.11H439.5V802h19.25v4.11H444.4V813h12.73v4H444.4v7.27Z"/><path class="cls-1" d="M484.86,822.26H471.67l-2.6,6.11H464L475.89,802h4.83l11.9,26.38H487.5Zm-1.62-3.84-5-11.53-4.94,11.53Z"/><path class="cls-1" d="M496.76,825.58l1.7-3.8a14.64,14.64,0,0,0,8.7,2.9c4.11,0,5.84-1.47,5.84-3.43,0-5.69-15.67-2-15.67-11.76,0-4.26,3.39-7.87,10.62-7.87a16.73,16.73,0,0,1,8.78,2.33l-1.54,3.81a14.63,14.63,0,0,0-7.27-2.07c-4.07,0-5.73,1.58-5.73,3.58,0,5.61,15.64,2,15.64,11.64,0,4.22-3.43,7.84-10.67,7.84C503.06,828.75,499,827.46,496.76,825.58Z"/><path class="cls-1" d="M549.13,802v26.38h-4.9v-11.3H530.59v11.3H525.7V802h4.89v10.89h13.64V802Z"/><path class="cls-1" d="M559.22,802h4.9v26.38h-4.9Z"/><path class="cls-1" d="M597.69,802v26.38h-4l-14.54-17.86v17.86h-4.86V802h4l14.54,17.86V802Z"/><path class="cls-1" d="M625.79,814.88h4.64v10.51a16.65,16.65,0,0,1-10.32,3.36c-8.18,0-14.21-5.69-14.21-13.57s6-13.56,14.28-13.56c4.41,0,8.1,1.47,10.59,4.29l-3.09,3a9.77,9.77,0,0,0-7.27-3c-5.62,0-9.57,3.81-9.57,9.27s3.95,9.27,9.53,9.27a10.63,10.63,0,0,0,5.42-1.36Z"/><path class="cls-1" d="M658.64,806.14H649.9V802h22.38v4.15h-8.74v22.23h-4.9Z"/><path class="cls-1" d="M702.42,802v26.38h-4.9v-11.3H683.88v11.3H679V802h4.89v10.89h13.64V802Z"/><path class="cls-1" d="M732.3,824.26v4.11H712.51V802h19.26v4.11H717.41V813h12.74v4H717.41v7.27Z"/><path class="cls-1" d="M776.26,811.38c0,5.8-4.3,9.38-11.23,9.38h-5.95v7.61h-4.9V802H765C772,802,776.26,805.54,776.26,811.38Zm-4.94,0c0-3.32-2.22-5.24-6.51-5.24h-5.73v10.47h5.73C769.1,816.61,771.32,814.69,771.32,811.38Z"/><path class="cls-1" d="M782.66,815.18c0-7.8,6-13.56,14.21-13.56s14.2,5.72,14.2,13.56-6,13.57-14.2,13.57S782.66,823,782.66,815.18Zm23.47,0a9.27,9.27,0,1,0-9.26,9.27A9,9,0,0,0,806.13,815.18Z"/><path class="cls-1" d="M857,802l-8.75,26.38h-5.2l-6.51-19.52-6.64,19.52h-5.23L815.92,802H821l6.56,20,6.82-20h4.52l6.67,20.16L852.32,802Z"/><path class="cls-1" d="M883.78,824.26v4.11H864V802h19.25v4.11H868.89V813h12.74v4H868.89v7.27Z"/><path class="cls-1" d="M909.51,828.37l-5.39-7.73a8.7,8.7,0,0,1-1,0h-6v7.69h-4.9V802H903.1c6.94,0,11.23,3.55,11.23,9.39a8.42,8.42,0,0,1-5.61,8.32l6.06,8.67Zm-6.63-22.23h-5.73v10.51h5.73c4.29,0,6.52-2,6.52-5.27S907.17,806.14,902.88,806.14Z"/><path class="cls-1" d="M934.33,815.18c0-7.8,6-13.56,14.21-13.56s14.2,5.72,14.2,13.56-6,13.57-14.2,13.57S934.33,823,934.33,815.18Zm23.47,0a9.27,9.27,0,1,0-9.26,9.27A9,9,0,0,0,957.8,815.18Z"/><path class="cls-1" d="M975.85,806.1v8h12.73v4.14H975.85v10.1H971V802H990.2v4.11Z"/><path class="cls-1" d="M1009.15,825.58l1.69-3.8a14.67,14.67,0,0,0,8.71,2.9c4.1,0,5.84-1.47,5.84-3.43,0-5.69-15.68-2-15.68-11.76,0-4.26,3.39-7.87,10.63-7.87a16.76,16.76,0,0,1,8.78,2.33l-1.55,3.81a14.57,14.57,0,0,0-7.27-2.07c-4.07,0-5.73,1.58-5.73,3.58,0,5.61,15.64,2,15.64,11.64,0,4.22-3.43,7.84-10.66,7.84C1015.44,828.75,1011.33,827.46,1009.15,825.58Z"/><path class="cls-1" d="M1062.31,828.37l0-17.48-8.66,14.47h-2.19l-8.67-14.25v17.26h-4.67V802h4l10.48,17.49L1062.87,802h4l0,26.38Z"/><path class="cls-1" d="M1094.18,822.26H1081l-2.6,6.11h-5.05L1085.21,802H1090l11.91,26.38h-5.12Zm-1.62-3.84-5-11.53-4.93,11.53Z"/><path class="cls-1" d="M1108.3,802h4.9v22.23H1127v4.15H1108.3Z"/><path class="cls-1" d="M1133.88,802h4.9v22.23h13.79v4.15h-18.69Z"/></svg>